<svg xmlns="http://www.w3.org/2000/svg" class="graphdiagram" viewBox="-560.6143975993441 -271.7576290976881 1140 541"><g class="layer relationships"><g class="related-pair"><g class="relationship" transform="translate(132.16018915034434,102.1731307492518) rotate(-141.7295341488677)"><path class="relationship" d="M 30.816780006252692,-15.43729072469244 L 31.660290650111747,-13.623871359598839 A 243.460488002105 243.460488002105 0 0 1 233.83009880041593,-15.080610084828315 L 232.6041620686823,-12.34253062473474 L 241.54028960457666,-12.72413862023656 L 235.8733266866386,-19.644075851650943 L 234.64738995490498,-16.905996391557366 A 245.460488002105 245.460488002105 0 0 0 30.816780006252692,-15.43729072469244" fill="rgba(0, 0, 0, 0.298039)" stroke="rgb(51, 51, 51)" stroke-width="0px"/><text class="type" text-anchor="middle" baseline-shift="30%" alignment-baseline="alphabetic" transform="rotate(180)" x="-134.34104714455958" y="37.33637757262605" font-size="14px" font-family="&quot;Helvetica Neue&quot;, Helvetica, Arial, sans-serif">ACTED_IN</text></g><g class="relationship" transform="translate(132.16018915034434,102.1731307492518) rotate(-141.7295341488677)"><path class="relationship" d="M 33.94583381749734,-5.971954563399282 L 34.23506959706618,-3.9929794084725705 A 692.2101940272902 692.2101940272902 0 0 1 231.06602349123114,-4.478610468091064 L 230.64682289068554,-1.5080430380362908 L 239.12727017155908,-4.350931343321097 L 231.76469115880712,-9.42955618484902 L 231.34549055826153,-6.458988754794246 A 694.2101940272902 694.2101940272902 0 0 0 33.94583381749734,-5.971954563399282" fill="rgba(0, 0, 0, 0.298039)" stroke="rgb(51, 51, 51)" stroke-width="0px"/><text class="type" text-anchor="middle" baseline-shift="30%" alignment-baseline="alphabetic" transform="rotate(180)" x="-134.3410471445593" y="12.269785452259953" font-size="14px" font-family="&quot;Helvetica Neue&quot;, Helvetica, Arial, sans-serif">DIRECTED_IN</text></g><g class="relationship" transform="translate(132.16018915034434,102.1731307492518) rotate(-141.7295341488677)"><path class="relationship" d="M 33.94583381749734,5.971954563399282 L 34.23506959706618,3.9929794084725705 A 692.2101940272902 692.2101940272902 0 0 0 231.06602349123114,4.478610468091064 L 230.64682289068554,1.5080430380362908 L 239.12727017155908,4.350931343321097 L 231.76469115880712,9.42955618484902 L 231.34549055826153,6.458988754794246 A 694.2101940272902 694.2101940272902 0 0 1 33.94583381749734,5.971954563399282" fill="rgba(0, 0, 0, 0.298039)" stroke="rgb(51, 51, 51)" stroke-width="0px"/><text class="type" text-anchor="middle" baseline-shift="30%" alignment-baseline="alphabetic" transform="rotate(180)" x="-134.3410471445593" y="-12.269785452259953" font-size="14px" font-family="&quot;Helvetica Neue&quot;, Helvetica, Arial, sans-serif">PRODUCED</text></g><g class="relationship" transform="translate(132.16018915034434,102.1731307492518) rotate(-141.7295341488677)"><path class="relationship" d="M 30.816780006252692,15.43729072469244 L 31.660290650111747,13.623871359598839 A 243.460488002105 243.460488002105 0 0 0 233.83009880041593,15.080610084828315 L 232.6041620686823,12.34253062473474 L 241.54028960457666,12.72413862023656 L 235.8733266866386,19.644075851650943 L 234.64738995490498,16.905996391557366 A 245.460488002105 245.460488002105 0 0 1 30.816780006252692,15.43729072469244" fill="rgba(0, 0, 0, 0.298039)" stroke="rgb(51, 51, 51)" stroke-width="0px"/><text class="type" text-anchor="middle" baseline-shift="30%" alignment-baseline="alphabetic" transform="rotate(180)" x="-134.34104714455958" y="-37.33637757262605" font-size="14px" font-family="&quot;Helvetica Neue&quot;, Helvetica, Arial, sans-serif">WRITER_OF</text></g></g><g class="related-pair"><g class="relationship" transform="translate(-79.78357595560561,-65.03265058430331) rotate(-3.3072517097628054)"><path class="relationship" d="M 31.137345731316586 1 L 153.6070968571682 1 L 153.6070968571682 4 L 161.6070968571682 0 L 153.6070968571682 -4 L 153.6070968571682 -1 L 31.137345731316586 -1 Z" fill="rgba(0, 0, 0, 0.298039)" stroke="rgb(51, 51, 51)" stroke-width="0px"/><text class="type" text-anchor="middle" baseline-shift="30%" alignment-baseline="alphabetic" x="92.3722212942424" y="0" font-size="14px" font-family="&quot;Helvetica Neue&quot;, Helvetica, Arial, sans-serif">HAS_GENRE</text></g></g><g class="related-pair"><g class="relationship" transform="translate(-79.78357595560561,-65.03265058430331) rotate(129.39106183974275)"><path class="relationship" d="M 31.137345731316586 1 L 129.53880501081002 1 L 129.53880501081002 4 L 137.53880501081002 0 L 129.53880501081002 -4 L 129.53880501081002 -1 L 31.137345731316586 -1 Z" fill="rgba(0, 0, 0, 0.298039)" stroke="rgb(51, 51, 51)" stroke-width="0px"/><text class="type" text-anchor="middle" baseline-shift="30%" alignment-baseline="alphabetic" transform="rotate(180)" x="-80.3380753710633" y="0" font-size="14px" font-family="&quot;Helvetica Neue&quot;, Helvetica, Arial, sans-serif">HAS_KEYWORD</text></g></g></g><g class="layer nodes"><circle class="node node-id-0" r="29.008187835896358" fill="rgb(247, 247, 249)" stroke="rgba(0, 0, 0, 0.298039)" stroke-width="0.888889px" cx="132.16018915034434" cy="102.1731307492518"/><circle class="node node-id-1" r="33.82137174732543" fill="rgb(247, 247, 249)" stroke="rgba(0, 0, 0, 0.298039)" stroke-width="0.888889px" cx="-191.9855493661632" cy="71.60772141829788"/><circle class="node node-id-4" r="25.692901231316586" fill="rgb(247, 247, 249)" stroke="rgba(0, 0, 0, 0.298039)" stroke-width="0.888889px" cx="-79.78357595560561" cy="-65.03265058430331"/><circle class="node node-id-5" r="26.63406460041709" fill="rgb(247, 247, 249)" stroke="rgba(0, 0, 0, 0.298039)" stroke-width="0.888889px" cx="113.57945107169778" cy="-76.20644734258238"/><g class="caption"><text class="caption node" text-anchor="middle" alignment-baseline="central" x="132.16018915034434" y="102.1731307492518" fill="rgb(51, 51, 51)" font-size="14px" font-family="&quot;Helvetica Neue&quot;, Helvetica, Arial, sans-serif">Person</text></g><g class="caption"><text class="caption node" text-anchor="middle" alignment-baseline="central" x="-191.9855493661632" y="71.60772141829788" fill="rgb(51, 51, 51)" font-size="14px" font-family="&quot;Helvetica Neue&quot;, Helvetica, Arial, sans-serif">Keyword</text></g><g class="caption"><text class="caption node" text-anchor="middle" alignment-baseline="central" x="-79.78357595560561" y="-65.03265058430331" fill="rgb(51, 51, 51)" font-size="14px" font-family="&quot;Helvetica Neue&quot;, Helvetica, Arial, sans-serif">Movie</text></g><g class="caption"><text class="caption node" text-anchor="middle" alignment-baseline="central" x="113.57945107169778" y="-76.20644734258238" fill="rgb(51, 51, 51)" font-size="14px" font-family="&quot;Helvetica Neue&quot;, Helvetica, Arial, sans-serif">Genre</text></g></g><g class="layer properties"><g class="speech-bubble node-speech-bubble" transform="translate(152.67207547903976,122.68501707794724) "><path class="speech-bubble-outline" transform="scale(1,1) " d="M 0 0 L 16 12 L 188 12 A 4 4 0 0 1 192 16 L 192 72 A 4 4 0 0 1 188 76 L 16 76 A 4 4 0 0 1 12 72 L 12 16 Z" fill="rgb(255, 255, 255)" stroke="rgba(0, 0, 0, 0.498039)" stroke-width="0.888889px"/><text class="speech-bubble-content property-key" x="116" y="23" alignment-baseline="central" text-anchor="end" font-size="14px" font-family="&quot;Helvetica Neue&quot;, Helvetica, Arial, sans-serif" xml:space="preserve">{id: </text><text class="speech-bubble-content property-key" x="116" y="37" alignment-baseline="central" text-anchor="end" font-size="14px" font-family="&quot;Helvetica Neue&quot;, Helvetica, Arial, sans-serif" xml:space="preserve">{name: </text><text class="speech-bubble-content property-key" x="116" y="51" alignment-baseline="central" text-anchor="end" font-size="14px" font-family="&quot;Helvetica Neue&quot;, Helvetica, Arial, sans-serif" xml:space="preserve">{born: </text><text class="speech-bubble-content property-key" x="116" y="65" alignment-baseline="central" text-anchor="end" font-size="14px" font-family="&quot;Helvetica Neue&quot;, Helvetica, Arial, sans-serif" xml:space="preserve">{poster_image: </text><text class="speech-bubble-content property-value" x="116" y="23" alignment-baseline="central" font-size="14px" font-family="&quot;Helvetica Neue&quot;, Helvetica, Arial, sans-serif">123}</text><text class="speech-bubble-content property-value" x="116" y="37" alignment-baseline="central" font-size="14px" font-family="&quot;Helvetica Neue&quot;, Helvetica, Arial, sans-serif">fullName}</text><text class="speech-bubble-content property-value" x="116" y="51" alignment-baseline="central" font-size="14px" font-family="&quot;Helvetica Neue&quot;, Helvetica, Arial, sans-serif">1999}</text><text class="speech-bubble-content property-value" x="116" y="65" alignment-baseline="central" font-size="14px" font-family="&quot;Helvetica Neue&quot;, Helvetica, Arial, sans-serif">&lt;url&gt;/a.jpg}</text></g><g class="speech-bubble node-speech-bubble" transform="translate(-215.90087067772814,95.52304272986281) "><path class="speech-bubble-outline" transform="scale(-1,1) " d="M 0 0 L 16 12 L 106 12 A 4 4 0 0 1 110 16 L 110 44 A 4 4 0 0 1 106 48 L 16 48 A 4 4 0 0 1 12 44 L 12 16 Z" fill="rgb(255, 255, 255)" stroke="rgba(0, 0, 0, 0.498039)" stroke-width="0.888889px"/><text class="speech-bubble-content property-key" x="-57" y="23" alignment-baseline="central" text-anchor="end" font-size="14px" font-family="&quot;Helvetica Neue&quot;, Helvetica, Arial, sans-serif" xml:space="preserve">{id: </text><text class="speech-bubble-content property-value" x="-57" y="23" alignment-baseline="central" font-size="14px" font-family="&quot;Helvetica Neue&quot;, Helvetica, Arial, sans-serif">123}</text><text class="speech-bubble-content property-key" x="-57" y="37" alignment-baseline="central" text-anchor="end" font-size="14px" font-family="&quot;Helvetica Neue&quot;, Helvetica, Arial, sans-serif" xml:space="preserve">{name: </text><text class="speech-bubble-content property-value" x="-57" y="37" alignment-baseline="central" font-size="14px" font-family="&quot;Helvetica Neue&quot;, Helvetica, Arial, sans-serif">name}</text></g><g class="speech-bubble node-speech-bubble" transform="translate(-97.95120064462577,-83.20027527332347) "><path class="speech-bubble-outline" transform="scale(-1,-1) " d="M 0 0 L 16 12 L 188 12 A 4 4 0 0 1 192 16 L 192 114 A 4 4 0 0 1 188 118 L 16 118 A 4 4 0 0 1 12 114 L 12 16 Z" fill="rgb(255, 255, 255)" stroke="rgba(0, 0, 0, 0.498039)" stroke-width="0.888889px"/><text class="speech-bubble-content property-key" x="-88" y="-107" alignment-baseline="central" text-anchor="end" font-size="14px" font-family="&quot;Helvetica Neue&quot;, Helvetica, Arial, sans-serif" xml:space="preserve">{id: </text><text class="speech-bubble-content property-key" x="-88" y="-93" alignment-baseline="central" text-anchor="end" font-size="14px" font-family="&quot;Helvetica Neue&quot;, Helvetica, Arial, sans-serif" xml:space="preserve">{title: </text><text class="speech-bubble-content property-value" x="-88" y="-107" alignment-baseline="central" font-size="14px" font-family="&quot;Helvetica Neue&quot;, Helvetica, Arial, sans-serif">123}</text><text class="speech-bubble-content property-value" x="-88" y="-93" alignment-baseline="central" font-size="14px" font-family="&quot;Helvetica Neue&quot;, Helvetica, Arial, sans-serif">title}</text><text class="speech-bubble-content property-key" x="-88" y="-79" alignment-baseline="central" text-anchor="end" font-size="14px" font-family="&quot;Helvetica Neue&quot;, Helvetica, Arial, sans-serif" xml:space="preserve">{tagline: </text><text class="speech-bubble-content property-key" x="-88" y="-65" alignment-baseline="central" text-anchor="end" font-size="14px" font-family="&quot;Helvetica Neue&quot;, Helvetica, Arial, sans-serif" xml:space="preserve">{summary: </text><text class="speech-bubble-content property-key" x="-88" y="-51" alignment-baseline="central" text-anchor="end" font-size="14px" font-family="&quot;Helvetica Neue&quot;, Helvetica, Arial, sans-serif" xml:space="preserve">{poster_image: </text><text class="speech-bubble-content property-key" x="-88" y="-37" alignment-baseline="central" text-anchor="end" font-size="14px" font-family="&quot;Helvetica Neue&quot;, Helvetica, Arial, sans-serif" xml:space="preserve">{duration: </text><text class="speech-bubble-content property-key" x="-88" y="-23" alignment-baseline="central" text-anchor="end" font-size="14px" font-family="&quot;Helvetica Neue&quot;, Helvetica, Arial, sans-serif" xml:space="preserve">{rated: </text><text class="speech-bubble-content property-value" x="-88" y="-79" alignment-baseline="central" font-size="14px" font-family="&quot;Helvetica Neue&quot;, Helvetica, Arial, sans-serif">pr}</text><text class="speech-bubble-content property-value" x="-88" y="-65" alignment-baseline="central" font-size="14px" font-family="&quot;Helvetica Neue&quot;, Helvetica, Arial, sans-serif">desc}</text><text class="speech-bubble-content property-value" x="-88" y="-51" alignment-baseline="central" font-size="14px" font-family="&quot;Helvetica Neue&quot;, Helvetica, Arial, sans-serif">&lt;url&gt;/a.jpg}</text><text class="speech-bubble-content property-value" x="-88" y="-37" alignment-baseline="central" font-size="14px" font-family="&quot;Helvetica Neue&quot;, Helvetica, Arial, sans-serif">60}</text><text class="speech-bubble-content property-value" x="-88" y="-23" alignment-baseline="central" font-size="14px" font-family="&quot;Helvetica Neue&quot;, Helvetica, Arial, sans-serif">R}</text></g><g class="speech-bubble relationship-speech-bubble" transform="translate(3.564407692100417,48.27835336511149) "><path class="speech-bubble-outline" transform="scale(-1,1) " d="M 0 0 L 16 12 L 96 12 A 4 4 0 0 1 100 16 L 100 30 A 4 4 0 0 1 96 34 L 16 34 A 4 4 0 0 1 12 30 L 12 16 Z" fill="rgb(255, 255, 255)" stroke="rgba(0, 0, 0, 0.498039)" stroke-width="0.888889px"/><text class="speech-bubble-content property-key" x="-55" y="23" alignment-baseline="central" text-anchor="end" font-size="14px" font-family="&quot;Helvetica Neue&quot;, Helvetica, Arial, sans-serif" xml:space="preserve">{[role: </text><text class="speech-bubble-content property-value" x="-55" y="23" alignment-baseline="central" font-size="14px" font-family="&quot;Helvetica Neue&quot;, Helvetica, Arial, sans-serif">desc]}</text></g><g class="speech-bubble node-speech-bubble" transform="translate(140.21351567211485,-76.20644734258238) "><path class="speech-bubble-outline" transform="scale(1,1) " d="M 0 0 L 12 -4 L 12 -14 A 4 4 0 0 1 16 -18 L 106 -18 A 4 4 0 0 1 110 -14 L 110 14 A 4 4 0 0 1 106 18 L 16 18 A 4 4 0 0 1 12 14 L 12 4 Z" fill="rgb(255, 255, 255)" stroke="rgba(0, 0, 0, 0.498039)" stroke-width="0.888889px"/><text class="speech-bubble-content property-key" x="65" y="-7" alignment-baseline="central" text-anchor="end" font-size="14px" font-family="&quot;Helvetica Neue&quot;, Helvetica, Arial, sans-serif" xml:space="preserve">{id: </text><text class="speech-bubble-content property-key" x="65" y="7" alignment-baseline="central" text-anchor="end" font-size="14px" font-family="&quot;Helvetica Neue&quot;, Helvetica, Arial, sans-serif" xml:space="preserve">{name: </text><text class="speech-bubble-content property-value" x="65" y="-7" alignment-baseline="central" font-size="14px" font-family="&quot;Helvetica Neue&quot;, Helvetica, Arial, sans-serif">123}</text><text class="speech-bubble-content property-value" x="65" y="7" alignment-baseline="central" font-size="14px" font-family="&quot;Helvetica Neue&quot;, Helvetica, Arial, sans-serif">name}</text></g></g><g class="layer overlay"><circle class="node overlay" r="29.452632335896357" stroke="none" fill="rgba(255, 255, 255, 0)" cx="132.16018915034434" cy="102.1731307492518"/><circle class="node overlay" r="34.265816247325425" stroke="none" fill="rgba(255, 255, 255, 0)" cx="-191.9855493661632" cy="71.60772141829788"/><circle class="node overlay" r="26.137345731316586" stroke="none" fill="rgba(255, 255, 255, 0)" cx="-79.78357595560561" cy="-65.03265058430331"/><circle class="node overlay" r="27.07850910041709" stroke="none" fill="rgba(255, 255, 255, 0)" cx="113.57945107169778" cy="-76.20644734258238"/><circle class="node ring" r="34.452632335896354" fill="none" stroke="rgba(255, 255, 255, 0)" stroke-width="10px" cx="132.16018915034434" cy="102.1731307492518"/><circle class="node ring" r="39.265816247325425" fill="none" stroke="rgba(255, 255, 255, 0)" stroke-width="10px" cx="-191.9855493661632" cy="71.60772141829788"/><circle class="node ring" r="31.137345731316586" fill="none" stroke="rgba(255, 255, 255, 0)" stroke-width="10px" cx="-79.78357595560561" cy="-65.03265058430331"/><circle class="node ring" r="32.078509100417094" fill="none" stroke="rgba(255, 255, 255, 0)" stroke-width="10px" cx="113.57945107169778" cy="-76.20644734258238"/><path class="relationship overlay" fill="rgba(255, 255, 255, 0)" stroke="rgba(255, 255, 255, 0)" stroke-width="10px" transform="translate(132.16018915034434,102.1731307492518) rotate(-141.7295341488677)" d="M 30.816780006252692,-15.43729072469244 L 31.660290650111747,-13.623871359598839 A 243.460488002105 243.460488002105 0 0 1 233.83009880041593,-15.080610084828315 L 232.6041620686823,-12.34253062473474 L 241.54028960457666,-12.72413862023656 L 235.8733266866386,-19.644075851650943 L 234.64738995490498,-16.905996391557366 A 245.460488002105 245.460488002105 0 0 0 30.816780006252692,-15.43729072469244"/><path class="relationship overlay" fill="rgba(255, 255, 255, 0)" stroke="rgba(255, 255, 255, 0)" stroke-width="10px" transform="translate(132.16018915034434,102.1731307492518) rotate(-141.7295341488677)" d="M 33.94583381749734,-5.971954563399282 L 34.23506959706618,-3.9929794084725705 A 692.2101940272902 692.2101940272902 0 0 1 231.06602349123114,-4.478610468091064 L 230.64682289068554,-1.5080430380362908 L 239.12727017155908,-4.350931343321097 L 231.76469115880712,-9.42955618484902 L 231.34549055826153,-6.458988754794246 A 694.2101940272902 694.2101940272902 0 0 0 33.94583381749734,-5.971954563399282"/><path class="relationship overlay" fill="rgba(255, 255, 255, 0)" stroke="rgba(255, 255, 255, 0)" stroke-width="10px" transform="translate(132.16018915034434,102.1731307492518) rotate(-141.7295341488677)" d="M 33.94583381749734,5.971954563399282 L 34.23506959706618,3.9929794084725705 A 692.2101940272902 692.2101940272902 0 0 0 231.06602349123114,4.478610468091064 L 230.64682289068554,1.5080430380362908 L 239.12727017155908,4.350931343321097 L 231.76469115880712,9.42955618484902 L 231.34549055826153,6.458988754794246 A 694.2101940272902 694.2101940272902 0 0 1 33.94583381749734,5.971954563399282"/><path class="relationship overlay" fill="rgba(255, 255, 255, 0)" stroke="rgba(255, 255, 255, 0)" stroke-width="10px" transform="translate(132.16018915034434,102.1731307492518) rotate(-141.7295341488677)" d="M 30.816780006252692,15.43729072469244 L 31.660290650111747,13.623871359598839 A 243.460488002105 243.460488002105 0 0 0 233.83009880041593,15.080610084828315 L 232.6041620686823,12.34253062473474 L 241.54028960457666,12.72413862023656 L 235.8733266866386,19.644075851650943 L 234.64738995490498,16.905996391557366 A 245.460488002105 245.460488002105 0 0 1 30.816780006252692,15.43729072469244"/><path class="relationship overlay" fill="rgba(255, 255, 255, 0)" stroke="rgba(255, 255, 255, 0)" stroke-width="10px" transform="translate(-79.78357595560561,-65.03265058430331) rotate(-3.3072517097628054)" d="M 31.137345731316586 1 L 153.6070968571682 1 L 153.6070968571682 4 L 161.6070968571682 0 L 153.6070968571682 -4 L 153.6070968571682 -1 L 31.137345731316586 -1 Z"/><path class="relationship overlay" fill="rgba(255, 255, 255, 0)" stroke="rgba(255, 255, 255, 0)" stroke-width="10px" transform="translate(-79.78357595560561,-65.03265058430331) rotate(129.39106183974275)" d="M 31.137345731316586 1 L 129.53880501081002 1 L 129.53880501081002 4 L 137.53880501081002 0 L 129.53880501081002 -4 L 129.53880501081002 -1 L 31.137345731316586 -1 Z"/></g></svg>