<svg xmlns="http://www.w3.org/2000/svg" width="651.4733276367188" height="765.0762329101562" viewBox="-205.74609375 -279.367431640625 651.4733276367188 765.0762329101562"><title>Neo4j Graph Visualization</title><desc>Created using Neo4j (http://www.neo4j.com/)</desc><g class="layer relationships"><g class="relationship" transform="translate(40.56394109649435 253.96669783734492) rotate(455.95391710409984)"><path class="outline" fill="#A5ABB6" stroke="none" d="M 25 0.5 L 50.33426354809555 0.5 L 50.33426354809555 -0.5 L 25 -0.5 Z M 60.78348229809555 0.5 L 86.1177458461911 0.5 L 86.1177458461911 3.5 L 93.1177458461911 0 L 86.1177458461911 -3.5 L 86.1177458461911 -0.5 L 60.78348229809555 -0.5 Z"/><text text-anchor="middle" pointer-events="none" font-size="8px" fill="#000000" x="55.55887292309555" y="3" transform="rotate(180 55.55887292309555 0)" font-family="sans-serif">5</text></g><g class="relationship" transform="translate(127.21362819121039 456.70878604779534) rotate(215.00042882205656)"><path class="outline" fill="#A5ABB6" stroke="none" d="M 25 0.5 L 45.093874371096376 0.5 L 45.093874371096376 -0.5 L 25 -0.5 Z M 55.543093121096376 0.5 L 75.63696749219275 0.5 L 75.63696749219275 3.5 L 82.63696749219275 0 L 75.63696749219275 -3.5 L 75.63696749219275 -0.5 L 55.543093121096376 -0.5 Z"/><text text-anchor="middle" pointer-events="none" font-size="8px" fill="#000000" x="50.318483746096376" y="3" transform="rotate(180 50.318483746096376 0)" font-family="sans-serif">4</text></g><g class="relationship" transform="translate(282.4497642875014 299.45650140636394) rotate(525.048896298408)"><path class="outline" fill="#A5ABB6" stroke="none" d="M 25 0.5 L 49.137663937713015 0.5 L 49.137663937713015 -0.5 L 25 -0.5 Z M 59.586882687713015 0.5 L 83.72454662542603 0.5 L 83.72454662542603 3.5 L 90.72454662542603 0 L 83.72454662542603 -3.5 L 83.72454662542603 -0.5 L 59.586882687713015 -0.5 Z"/><text text-anchor="middle" pointer-events="none" font-size="8px" fill="#000000" x="54.362273312713015" y="3" transform="rotate(180 54.362273312713015 0)" font-family="sans-serif">5</text></g><g class="relationship" transform="translate(40.56394109649435 253.96669783734492) rotate(394.4243298550353)"><path class="outline" fill="#A5ABB6" stroke="none" d="M 25 0.5 L 53.83872571788872 0.5 L 53.83872571788872 -0.5 L 25 -0.5 Z M 64.28794446788872 0.5 L 93.12667018577744 0.5 L 93.12667018577744 3.5 L 100.12667018577744 0 L 93.12667018577744 -3.5 L 93.12667018577744 -0.5 L 64.28794446788872 -0.5 Z"/><text text-anchor="middle" pointer-events="none" font-size="8px" fill="#000000" x="59.06333509288872" y="3" font-family="sans-serif">5</text></g><g class="relationship" transform="translate(127.21362819121039 456.70878604779534) rotate(283.1843114397349)"><path class="outline" fill="#A5ABB6" stroke="none" d="M 25 0.5 L 47.210478081567366 0.5 L 47.210478081567366 -0.5 L 25 -0.5 Z M 57.659696831567366 0.5 L 79.87017491313473 0.5 L 79.87017491313473 3.5 L 86.87017491313473 0 L 79.87017491313473 -3.5 L 79.87017491313473 -0.5 L 57.659696831567366 -0.5 Z"/><text text-anchor="middle" pointer-events="none" font-size="8px" fill="#000000" x="52.435087456567366" y="3" font-family="sans-serif">4</text></g><g class="relationship" transform="translate(282.4497642875014 299.45650140636394) rotate(212.9697118871345)"><path class="outline" fill="#A5ABB6" stroke="none" d="M 25 0.5 L 47.986256378775536 0.5 L 47.986256378775536 -0.5 L 25 -0.5 Z M 58.435475128775536 0.5 L 81.42173150755107 0.5 L 81.42173150755107 3.5 L 88.42173150755107 0 L 81.42173150755107 -3.5 L 81.42173150755107 -0.5 L 58.435475128775536 -0.5 Z"/><text text-anchor="middle" pointer-events="none" font-size="8px" fill="#000000" x="53.210865753775536" y="3" transform="rotate(180 53.210865753775536 0)" font-family="sans-serif">3</text></g><g class="relationship" transform="translate(40.56394109649435 253.96669783734492) rotate(349.6923924741212)"><path class="outline" fill="#A5ABB6" stroke="none" d="M 25 0.5 L 51.948282101546894 0.5 L 51.948282101546894 -0.5 L 25 -0.5 Z M 62.397500851546894 0.5 L 89.34578295309379 0.5 L 89.34578295309379 3.5 L 96.34578295309379 0 L 89.34578295309379 -3.5 L 89.34578295309379 -0.5 L 62.397500851546894 -0.5 Z"/><text text-anchor="middle" pointer-events="none" font-size="8px" fill="#000000" x="57.172891476546894" y="3" font-family="sans-serif">5</text></g><g class="relationship" transform="translate(175.37786721839774 -126.66794406701993) rotate(355.60014886663475)"><path class="outline" fill="#A5ABB6" stroke="none" d="M 25 0.5 L 50.155759657292364 0.5 L 50.155759657292364 -0.5 L 25 -0.5 Z M 60.604978407292364 0.5 L 85.76073806458473 0.5 L 85.76073806458473 3.5 L 92.76073806458473 0 L 85.76073806458473 -3.5 L 85.76073806458473 -0.5 L 60.604978407292364 -0.5 Z"/><text text-anchor="middle" pointer-events="none" font-size="8px" fill="#000000" x="55.380369032292364" y="3" font-family="sans-serif">5</text></g><g class="relationship" transform="translate(282.4497642875014 299.45650140636394) rotate(372.5062986712351)"><path class="outline" fill="#A5ABB6" stroke="none" d="M 25 0.5 L 44.86361986472321 0.5 L 44.86361986472321 -0.5 L 25 -0.5 Z M 55.31283861472321 0.5 L 75.17645847944642 0.5 L 75.17645847944642 3.5 L 82.17645847944642 0 L 75.17645847944642 -3.5 L 75.17645847944642 -0.5 L 55.31283861472321 -0.5 Z"/><text text-anchor="middle" pointer-events="none" font-size="8px" fill="#000000" x="50.08822923972321" y="3" font-family="sans-serif">2</text></g><g class="relationship" transform="translate(175.37786721839774 -126.66794406701993) rotate(484.81529869715905)"><path class="outline" fill="#A5ABB6" stroke="none" d="M 25 0.5 L 48.16072569128548 0.5 L 48.16072569128548 -0.5 L 25 -0.5 Z M 58.60994444128548 0.5 L 81.77067013257096 0.5 L 81.77067013257096 3.5 L 88.77067013257096 0 L 81.77067013257096 -3.5 L 81.77067013257096 -0.5 L 58.60994444128548 -0.5 Z"/><text text-anchor="middle" pointer-events="none" font-size="8px" fill="#000000" x="53.38533506628548" y="3" transform="rotate(180 53.38533506628548 0)" font-family="sans-serif">5</text></g><g class="relationship" transform="translate(-25.592406231246123 29.016585988216747) rotate(338.59346432420284)"><path class="outline" fill="#A5ABB6" stroke="none" d="M 25 0.5 L 52.22272212654805 0.5 L 52.22272212654805 -0.5 L 25 -0.5 Z M 62.67194087654805 0.5 L 89.8946630030961 0.5 L 89.8946630030961 3.5 L 96.8946630030961 0 L 89.8946630030961 -3.5 L 89.8946630030961 -0.5 L 62.67194087654805 -0.5 Z"/><text text-anchor="middle" pointer-events="none" font-size="8px" fill="#000000" x="57.44733150154805" y="3" font-family="sans-serif">3</text></g><g class="relationship" transform="translate(-176.74609789408134 152.36336165957493) rotate(351.308336999012)"><path class="outline" fill="#A5ABB6" stroke="none" d="M 25 0.5 L 65.02242560998157 0.5 L 65.02242560998157 -0.5 L 25 -0.5 Z M 75.47164435998157 0.5 L 115.49406996996314 0.5 L 115.49406996996314 3.5 L 122.49406996996314 0 L 115.49406996996314 -3.5 L 115.49406996996314 -0.5 L 75.47164435998157 -0.5 Z"/><text text-anchor="middle" pointer-events="none" font-size="8px" fill="#000000" x="70.24703498498157" y="3" font-family="sans-serif">3</text></g><g class="relationship" transform="translate(-141.22010319646648 77.64712988099741) rotate(381.8487044658784)"><path class="outline" fill="#A5ABB6" stroke="none" d="M 25 0.5 L 51.16714030084688 0.5 L 51.16714030084688 -0.5 L 25 -0.5 Z M 61.61635905084688 0.5 L 87.78349935169376 0.5 L 87.78349935169376 3.5 L 94.78349935169376 0 L 87.78349935169376 -3.5 L 87.78349935169376 -0.5 L 61.61635905084688 -0.5 Z"/><text text-anchor="middle" pointer-events="none" font-size="8px" fill="#000000" x="56.39174967584688" y="3" font-family="sans-serif">1</text></g><g class="relationship" transform="translate(40.56394109649435 253.96669783734492) rotate(245.8060498281269)"><path class="outline" fill="#A5ABB6" stroke="none" d="M 25 0.5 L 52.92909204659783 0.5 L 52.92909204659783 -0.5 L 25 -0.5 Z M 63.37831079659783 0.5 L 91.30740284319566 0.5 L 91.30740284319566 3.5 L 98.30740284319566 0 L 91.30740284319566 -3.5 L 91.30740284319566 -0.5 L 63.37831079659783 -0.5 Z"/><text text-anchor="middle" pointer-events="none" font-size="8px" fill="#000000" x="58.15370142159783" y="3" transform="rotate(180 58.15370142159783 0)" font-family="sans-serif">2</text></g><g class="relationship" transform="translate(175.37786721839774 -126.66794406701993) rotate(526.0172620944552)"><path class="outline" fill="#A5ABB6" stroke="none" d="M 25 0.5 L 51.38097999773538 0.5 L 51.38097999773538 -0.5 L 25 -0.5 Z M 61.83019874773538 0.5 L 88.21117874547076 0.5 L 88.21117874547076 3.5 L 95.21117874547076 0 L 88.21117874547076 -3.5 L 88.21117874547076 -0.5 L 61.83019874773538 -0.5 Z"/><text text-anchor="middle" pointer-events="none" font-size="8px" fill="#000000" x="56.60558937273538" y="3" transform="rotate(180 56.60558937273538 0)" font-family="sans-serif">3</text></g><g class="relationship" transform="translate(-25.592406231246123 29.016585988216747) rotate(299.5592046123718)"><path class="outline" fill="#A5ABB6" stroke="none" d="M 25 0.5 L 54.485295812510486 0.5 L 54.485295812510486 -0.5 L 25 -0.5 Z M 64.93451456251049 0.5 L 94.41981037502097 0.5 L 94.41981037502097 3.5 L 101.41981037502097 0 L 94.41981037502097 -3.5 L 94.41981037502097 -0.5 L 64.93451456251049 -0.5 Z"/><text text-anchor="middle" pointer-events="none" font-size="8px" fill="#000000" x="59.709905187510486" y="3" font-family="sans-serif">3</text></g><g class="relationship" transform="translate(175.37786721839774 -126.66794406701993) rotate(302.3858398404402)"><path class="outline" fill="#A5ABB6" stroke="none" d="M 25 0.5 L 46.35933916323377 0.5 L 46.35933916323377 -0.5 L 25 -0.5 Z M 56.80855791323377 0.5 L 78.16789707646754 0.5 L 78.16789707646754 3.5 L 85.16789707646754 0 L 78.16789707646754 -3.5 L 78.16789707646754 -0.5 L 56.80855791323377 -0.5 Z"/><text text-anchor="middle" pointer-events="none" font-size="8px" fill="#000000" x="51.58394853823377" y="3" font-family="sans-serif">1</text></g><g class="relationship" transform="translate(-25.592406231246123 29.016585988216747) rotate(229.7136872630864)"><path class="outline" fill="#A5ABB6" stroke="none" d="M 25 0.5 L 51.90335029692409 0.5 L 51.90335029692409 -0.5 L 25 -0.5 Z M 62.35256904692409 0.5 L 89.25591934384818 0.5 L 89.25591934384818 3.5 L 96.25591934384818 0 L 89.25591934384818 -3.5 L 89.25591934384818 -0.5 L 62.35256904692409 -0.5 Z"/><text text-anchor="middle" pointer-events="none" font-size="8px" fill="#000000" x="57.12795967192409" y="3" transform="rotate(180 57.12795967192409 0)" font-family="sans-serif">1</text></g><g class="relationship" transform="translate(282.4497642875014 299.45650140636394) rotate(313.7004944895042)"><path class="outline" fill="#A5ABB6" stroke="none" d="M 25 0.5 L 48.27486599519334 0.5 L 48.27486599519334 -0.5 L 25 -0.5 Z M 58.72408474519334 0.5 L 81.99895074038668 0.5 L 81.99895074038668 3.5 L 88.99895074038668 0 L 81.99895074038668 -3.5 L 81.99895074038668 -0.5 L 58.72408474519334 -0.5 Z"/><text text-anchor="middle" pointer-events="none" font-size="8px" fill="#000000" x="53.49947537019334" y="3" font-family="sans-serif">3</text></g><g class="relationship" transform="translate(175.37786721839774 -126.66794406701993) rotate(238.5340967459727)"><path class="outline" fill="#A5ABB6" stroke="none" d="M 25 0.5 L 47.49503960152322 0.5 L 47.49503960152322 -0.5 L 25 -0.5 Z M 57.94425835152322 0.5 L 80.43929795304643 0.5 L 80.43929795304643 3.5 L 87.43929795304643 0 L 80.43929795304643 -3.5 L 80.43929795304643 -0.5 L 57.94425835152322 -0.5 Z"/><text text-anchor="middle" pointer-events="none" font-size="8px" fill="#000000" x="52.71964897652322" y="3" transform="rotate(180 52.71964897652322 0)" font-family="sans-serif">2</text></g><g class="relationship" transform="translate(40.56394109649435 253.96669783734492) rotate(507.9747362179135)"><path class="outline" fill="#A5ABB6" stroke="none" d="M 25 0.5 L 50.32646791540637 0.5 L 50.32646791540637 -0.5 L 25 -0.5 Z M 60.77568666540637 0.5 L 86.10215458081274 0.5 L 86.10215458081274 3.5 L 93.10215458081274 0 L 86.10215458081274 -3.5 L 86.10215458081274 -0.5 L 60.77568666540637 -0.5 Z"/><text text-anchor="middle" pointer-events="none" font-size="8px" fill="#000000" x="55.55107729040637" y="3" transform="rotate(180 55.55107729040637 0)" font-family="sans-serif">1</text></g><g class="relationship" transform="translate(175.37786721839774 -126.66794406701993) rotate(399.9166794449317)"><path class="outline" fill="#A5ABB6" stroke="none" d="M 25 0.5 L 49.86704610161782 0.5 L 49.86704610161782 -0.5 L 25 -0.5 Z M 60.31626485161782 0.5 L 85.18331095323563 0.5 L 85.18331095323563 3.5 L 92.18331095323563 0 L 85.18331095323563 -3.5 L 85.18331095323563 -0.5 L 60.31626485161782 -0.5 Z"/><text text-anchor="middle" pointer-events="none" font-size="8px" fill="#000000" x="55.09165547661782" y="3" font-family="sans-serif">1</text></g><g class="relationship" transform="translate(-176.74609789408134 152.36336165957493) rotate(380.8029799395018)"><path class="outline" fill="#A5ABB6" stroke="none" d="M 25 0.5 L 34.20809134164342 0.5 L 34.20809134164342 -0.5 L 25 -0.5 Z M 44.65731009164342 0.5 L 53.865401433286834 0.5 L 53.865401433286834 3.5 L 60.865401433286834 0 L 53.865401433286834 -3.5 L 53.865401433286834 -0.5 L 44.65731009164342 -0.5 Z"/><text text-anchor="middle" pointer-events="none" font-size="8px" fill="#000000" x="39.43270071664342" y="3" font-family="sans-serif">3</text></g><g class="relationship" transform="translate(-141.22010319646648 77.64712988099741) rotate(422.00444314640606)"><path class="outline" fill="#A5ABB6" stroke="none" d="M 25 0.5 L 46.36947078753017 0.5 L 46.36947078753017 -0.5 L 25 -0.5 Z M 56.81868953753017 0.5 L 78.18816032506034 0.5 L 78.18816032506034 3.5 L 85.18816032506034 0 L 78.18816032506034 -3.5 L 78.18816032506034 -0.5 L 56.81868953753017 -0.5 Z"/><text text-anchor="middle" pointer-events="none" font-size="8px" fill="#000000" x="51.59408016253017" y="3" font-family="sans-serif">3</text></g><g class="relationship" transform="translate(-25.592406231246123 29.016585988216747) rotate(469.6594653021703)"><path class="outline" fill="#A5ABB6" stroke="none" d="M 25 0.5 L 68.2864875713476 0.5 L 68.2864875713476 -0.5 L 25 -0.5 Z M 78.7357063213476 0.5 L 122.02219389269521 0.5 L 122.02219389269521 3.5 L 129.0221938926952 0 L 122.02219389269521 -3.5 L 122.02219389269521 -0.5 L 78.7357063213476 -0.5 Z"/><text text-anchor="middle" pointer-events="none" font-size="8px" fill="#000000" x="73.5110969463476" y="3" transform="rotate(180 73.5110969463476 0)" font-family="sans-serif">3</text></g><g class="relationship" transform="translate(40.56394109649435 253.96669783734492) rotate(208.13394201576568)"><path class="outline" fill="#A5ABB6" stroke="none" d="M 25 0.5 L 53.52685515680885 0.5 L 53.52685515680885 -0.5 L 25 -0.5 Z M 63.97607390680885 0.5 L 92.5029290636177 0.5 L 92.5029290636177 3.5 L 99.5029290636177 0 L 92.5029290636177 -3.5 L 92.5029290636177 -0.5 L 63.97607390680885 -0.5 Z"/><text text-anchor="middle" pointer-events="none" font-size="8px" fill="#000000" x="58.75146453180885" y="3" transform="rotate(180 58.75146453180885 0)" font-family="sans-serif">2</text></g></g><g class="layer nodes"><g class="node" transform="translate(40.56394109649435,253.96669783734492)"><circle class="outline" cx="0" cy="0" r="25" fill="#68BDF6" stroke="#5CA8DB" stroke-width="2px"/><text text-anchor="middle" pointer-events="none" y="5" font-size="10px" fill="#FFFFFF" font-family="sans-serif"> Mary Sue</text></g><g class="node" transform="translate(26.7558320295831,386.36635940476515)"><circle class="outline" cx="0" cy="0" r="40" fill="#FFD86E" stroke="#EDBA39" stroke-width="2px"/><text text-anchor="middle" pointer-events="none" y="5" font-size="10px" fill="#604A0E" font-family="sans-serif"> The Matrix</text></g><g class="node" transform="translate(127.21362819121039,456.70878604779534)"><circle class="outline" cx="0" cy="0" r="25" fill="#68BDF6" stroke="#5CA8DB" stroke-width="2px"/><text text-anchor="middle" pointer-events="none" y="0" font-size="10px" fill="#FFFFFF" font-family="sans-serif"> Mary</text><text text-anchor="middle" pointer-events="none" y="10" font-size="10px" fill="#FFFFFF" font-family="sans-serif"> Jane</text></g><g class="node" transform="translate(156.15072057156186,333.1827322491719)"><circle class="outline" cx="0" cy="0" r="40" fill="#FFD86E" stroke="#EDBA39" stroke-width="2px"/><text text-anchor="middle" pointer-events="none" y="0" font-size="10px" fill="#604A0E" font-family="sans-serif"> The Matrix</text><text text-anchor="middle" pointer-events="none" y="10" font-size="10px" fill="#604A0E" font-family="sans-serif"> Reloaded</text></g><g class="node" transform="translate(282.4497642875014,299.45650140636394)"><circle class="outline" cx="0" cy="0" r="25" fill="#68BDF6" stroke="#5CA8DB" stroke-width="2px"/><text text-anchor="middle" pointer-events="none" y="5" font-size="10px" fill="#FFFFFF" font-family="sans-serif"> Dracula</text></g><g class="node" transform="translate(174.70927880122017,229.56995827696056)"><circle class="outline" cx="0" cy="0" r="40" fill="#FFD86E" stroke="#EDBA39" stroke-width="2px"/><text text-anchor="middle" pointer-events="none" y="0" font-size="10px" fill="#604A0E" font-family="sans-serif"> The Matrix</text><text text-anchor="middle" pointer-events="none" y="10" font-size="10px" fill="#604A0E" font-family="sans-serif"> Revolutions</text></g><g class="node" transform="translate(175.37786721839774,-126.66794406701993)"><circle class="outline" cx="0" cy="0" r="25" fill="#68BDF6" stroke="#5CA8DB" stroke-width="2px"/><text text-anchor="middle" pointer-events="none" y="5" font-size="10px" fill="#FFFFFF" font-family="sans-serif"> Robin</text></g><g class="node" transform="translate(307.747352956435,-136.85287494065983)"><circle class="outline" cx="0" cy="0" r="40" fill="#FFD86E" stroke="#EDBA39" stroke-width="2px"/><text text-anchor="middle" pointer-events="none" y="5" font-size="10px" fill="#604A0E" font-family="sans-serif"> Pulp Fiction</text></g><g class="node" transform="translate(401.72724510707286,325.91343954963105)"><circle class="outline" cx="0" cy="0" r="40" fill="#FFD86E" stroke="#EDBA39" stroke-width="2px"/><text text-anchor="middle" pointer-events="none" y="5" font-size="10px" fill="#604A0E" font-family="sans-serif"> Cloud Atlas</text></g><g class="node" transform="translate(101.85846737549784,-20.947636967904806)"><circle class="outline" cx="0" cy="0" r="40" fill="#FFD86E" stroke="#EDBA39" stroke-width="2px"/><text text-anchor="middle" pointer-events="none" y="0" font-size="10px" fill="#604A0E" font-family="sans-serif"> The Shawshank</text><text text-anchor="middle" pointer-events="none" y="10" font-size="10px" fill="#604A0E" font-family="sans-serif"> Redemption</text></g><g class="node" transform="translate(-25.592406231246123,29.016585988216747)"><circle class="outline" cx="0" cy="0" r="25" fill="#68BDF6" stroke="#5CA8DB" stroke-width="2px"/><text text-anchor="middle" pointer-events="none" y="5" font-size="10px" fill="#FFFFFF" font-family="sans-serif"> Raj</text></g><g class="node" transform="translate(-16.11812834537365,127.80774775841766)"><circle class="outline" cx="0" cy="0" r="40" fill="#FFD86E" stroke="#EDBA39" stroke-width="2px"/><text text-anchor="middle" pointer-events="none" y="0" font-size="10px" fill="#604A0E" font-family="sans-serif"> The Godfather:</text><text text-anchor="middle" pointer-events="none" y="10" font-size="10px" fill="#604A0E" font-family="sans-serif"> Part II</text></g><g class="node" transform="translate(-176.74609789408134,152.36336165957493)"><circle class="outline" cx="0" cy="0" r="25" fill="#68BDF6" stroke="#5CA8DB" stroke-width="2px"/><text text-anchor="middle" pointer-events="none" y="0" font-size="10px" fill="#FFFFFF" font-family="sans-serif"> Green</text><text text-anchor="middle" pointer-events="none" y="10" font-size="10px" fill="#FFFFFF" font-family="sans-serif"> Monster</text></g><g class="node" transform="translate(-141.22010319646648,77.64712988099741)"><circle class="outline" cx="0" cy="0" r="25" fill="#68BDF6" stroke="#5CA8DB" stroke-width="2px"/><text text-anchor="middle" pointer-events="none" y="5" font-size="10px" fill="#FFFFFF" font-family="sans-serif"> Batman</text></g><g class="node" transform="translate(44.17318924588579,-93.99692731104676)"><circle class="outline" cx="0" cy="0" r="40" fill="#FFD86E" stroke="#EDBA39" stroke-width="2px"/><text text-anchor="middle" pointer-events="none" y="5" font-size="10px" fill="#604A0E" font-family="sans-serif"> The Dark Knight</text></g><g class="node" transform="translate(242.42005971143976,-232.36726707464885)"><circle class="outline" cx="0" cy="0" r="40" fill="#FFD86E" stroke="#EDBA39" stroke-width="2px"/><text text-anchor="middle" pointer-events="none" y="0" font-size="10px" fill="#604A0E" font-family="sans-serif"> The Dark Knight</text><text text-anchor="middle" pointer-events="none" y="10" font-size="10px" fill="#604A0E" font-family="sans-serif"> Rises</text></g><g class="node" transform="translate(-113.69651498539346,-74.92253839175211)"><circle class="outline" cx="0" cy="0" r="40" fill="#FFD86E" stroke="#EDBA39" stroke-width="2px"/><text text-anchor="middle" pointer-events="none" y="5" font-size="10px" fill="#604A0E" font-family="sans-serif"> 12 Angry Men</text></g><g class="node" transform="translate(371.5736752930033,206.19526734202142)"><circle class="outline" cx="0" cy="0" r="40" fill="#FFD86E" stroke="#EDBA39" stroke-width="2px"/><text text-anchor="middle" pointer-events="none" y="-10" font-size="10px" fill="#604A0E" font-family="sans-serif"> The Lord of</text><text text-anchor="middle" pointer-events="none" y="0" font-size="10px" fill="#604A0E" font-family="sans-serif"> the Rings: The</text><text text-anchor="middle" pointer-events="none" y="10" font-size="10px" fill="#604A0E" font-family="sans-serif"> Return of the</text><text text-anchor="middle" pointer-events="none" y="20" font-size="10px" fill="#604A0E" font-family="sans-serif"> King</text></g><g class="node" transform="translate(108.85569227374287,-235.36741464253873)"><circle class="outline" cx="0" cy="0" r="40" fill="#FFD86E" stroke="#EDBA39" stroke-width="2px"/><text text-anchor="middle" pointer-events="none" y="5" font-size="10px" fill="#604A0E" font-family="sans-serif"> Fight Club</text></g><g class="node" transform="translate(-72.28197599200787,324.5498583680937)"><circle class="outline" cx="0" cy="0" r="40" fill="#FFD86E" stroke="#EDBA39" stroke-width="2px"/><text text-anchor="middle" pointer-events="none" y="-10" font-size="10px" fill="#604A0E" font-family="sans-serif"> The Lord of</text><text text-anchor="middle" pointer-events="none" y="0" font-size="10px" fill="#604A0E" font-family="sans-serif"> the Rings: The</text><text text-anchor="middle" pointer-events="none" y="10" font-size="10px" fill="#604A0E" font-family="sans-serif"> Fellowship of</text><text text-anchor="middle" pointer-events="none" y="20" font-size="10px" fill="#604A0E" font-family="sans-serif"> the Ring</text></g><g class="node" transform="translate(276.7596097251469,-41.84949099898178)"><circle class="outline" cx="0" cy="0" r="40" fill="#FFD86E" stroke="#EDBA39" stroke-width="2px"/><text text-anchor="middle" pointer-events="none" y="5" font-size="10px" fill="#604A0E" font-family="sans-serif"> Inception</text></g><g class="node" transform="translate(-82.45639378754495,188.18627200756197)"><circle class="outline" cx="0" cy="0" r="40" fill="#FFD86E" stroke="#EDBA39" stroke-width="2px"/><text text-anchor="middle" pointer-events="none" y="5" font-size="10px" fill="#604A0E" font-family="sans-serif"> Goodfellas</text></g></g></svg>