<?xml version="1.0" encoding="utf-8"?>
<!-- Generator: Adobe Illustrator 15.1.0, SVG Export Plug-In . SVG Version: 6.00 Build 0)  -->
<!DOCTYPE svg PUBLIC "-//W3C//DTD SVG 1.1//EN" "http://www.w3.org/Graphics/SVG/1.1/DTD/svg11.dtd">
<svg version="1.1" xmlns="http://www.w3.org/2000/svg" xmlns:xlink="http://www.w3.org/1999/xlink" x="0px" y="0px" width="221px"
	 height="266px" viewBox="0 0 221 266" enable-background="new 0 0 221 266" xml:space="preserve">
<g id="Layer_1">
	<rect x="-37.075" y="-14" display="none" fill="#2B788C" width="1200" height="294"/>
	<g>
		<g>
			<circle fill="#8CB6C1" cx="84.482" cy="208.955" r="43.733"/>
			<g>
				<circle fill="#C9FAA2" cx="84.482" cy="208.955" r="40.923"/>
				<path fill="#ADE871" d="M45.163,210.659c0-22.601,18.321-40.923,40.923-40.923c11.291,0,21.514,4.572,28.918,11.967
					c-7.495-8.386-18.389-13.671-30.521-13.671c-22.601,0-40.923,18.323-40.923,40.923c0,11.308,4.587,21.541,12.001,28.948
					C49.096,230.668,45.163,221.125,45.163,210.659z"/>
			</g>
		</g>
		<g>
			<path fill="#8CB6C1" d="M205.791,101.802c0,28.981-23.497,52.49-52.479,52.49c-28.984,0-52.479-23.509-52.479-52.49
				c0-28.982,23.494-52.479,52.479-52.479C182.294,49.323,205.791,72.82,205.791,101.802z"/>
			<g>
				<path fill="#C9FAA2" d="M202.42,101.802c0,27.12-21.989,49.117-49.108,49.117c-27.121,0-49.108-21.997-49.108-49.117
					c0-27.12,21.987-49.106,49.108-49.106C180.432,52.696,202.42,74.682,202.42,101.802z"/>
				<path fill="#ADE871" d="M106.127,103.848c0-27.122,21.987-49.108,49.109-49.108c13.547,0,25.813,5.488,34.699,14.361
					c-8.994-10.063-22.065-16.405-36.623-16.405c-27.121,0-49.108,21.986-49.108,49.106c0,13.569,5.504,25.852,14.401,34.748
					C110.849,127.858,106.127,116.406,106.127,103.848z"/>
			</g>
		</g>
		<g>
			<circle fill="#8CB6C1" cx="52.406" cy="48.647" r="30.614"/>
			<g>
				<circle fill="#C9FAA2" cx="52.407" cy="48.647" r="28.646"/>
				<path fill="#ADE871" d="M24.883,49.84c0-15.82,12.824-28.646,28.645-28.646c7.905,0,15.06,3.202,20.242,8.377
					c-5.245-5.871-12.871-9.57-21.362-9.57c-15.822,0-28.646,12.826-28.646,28.646c0,7.915,3.211,15.08,8.398,20.264
					C27.636,63.846,24.883,57.167,24.883,49.84z"/>
			</g>
		</g>
		<path fill="#888888" d="M53.659,139.649c0,4.262-3.453,7.714-7.714,7.714c-4.259,0-7.713-3.452-7.713-7.714
			c0-4.261,3.454-7.722,7.713-7.722C50.207,131.927,53.659,135.389,53.659,139.649z"/>
		<circle fill="#888888" cx="57.134" cy="159.913" r="7.714"/>
		<circle fill="#888888" cx="41.707" cy="115.127" r="7.714"/>
		<circle fill="#888888" cx="40.848" cy="92.851" r="7.714"/>
		<circle fill="#888888" cx="97.907" cy="40.024" r="7.714"/>
		<circle fill="#888888" cx="118.166" cy="47.146" r="7.714"/>
		<circle fill="#888888" cx="140.645" cy="186.994" r="7.714"/>
		<circle fill="#888888" cx="154.377" cy="170.461" r="7.713"/>
	</g>
	<rect x="214.641" y="53.701" fill="none" width="928.054" height="189.596"/>
	<text transform="matrix(1 0 0 1 214.6411 141.4609)" display="none"><tspan x="0" y="0" display="inline" fill="#888888" font-family="'OfficinaSerifStd-Bold'" font-size="122.4" letter-spacing="-2">N</tspan><tspan x="78.947" y="0" display="inline" fill="#888888" font-family="'OfficinaSerifStd-Bold'" font-size="122.4" letter-spacing="3">e</tspan><tspan x="143.33" y="0" display="inline" fill="#888888" font-family="'OfficinaSerifStd-Bold'" font-size="122.4" letter-spacing="1">o</tspan><tspan x="208.813" y="0" display="inline" fill="#888888" font-family="'OfficinaSerifStd-Bold'" font-size="122.4">4</tspan><tspan x="276.378" y="0" display="inline" fill="#888888" font-family="'OfficinaSerifStd-Bold'" font-size="122.4" letter-spacing="-1">j</tspan></text>
	<text transform="matrix(1 0 0 1 219.9736 216.4619)" display="none"><tspan x="0" y="0" display="inline" fill="#888888" font-family="'OfficinaSerifStd-Bold'" font-size="58">the </tspan><tspan x="104.34" y="0" display="inline" fill="#888888" font-family="'OfficinaSerifStd-Bold'" font-size="58">w</tspan><tspan x="145.751" y="0" display="inline" fill="#888888" font-family="'OfficinaSerifStd-Bold'" font-size="58">orld</tspan><tspan x="251.195" y="0" display="inline" fill="#888888" font-family="'OfficinaSerifStd-Bold'" font-size="58">’</tspan><tspan x="263.606" y="0" display="inline" fill="#888888" font-family="'OfficinaSerifStd-Bold'" font-size="58">s leading g</tspan><tspan x="550.354" y="0" display="inline" fill="#888888" font-family="'OfficinaSerifStd-Bold'" font-size="58">r</tspan><tspan x="573.497" y="0" display="inline" fill="#888888" font-family="'OfficinaSerifStd-Bold'" font-size="58">aph database </tspan></text>
</g>

</svg>
