<svg xmlns="http://www.w3.org/2000/svg" width="312.594970703125" height="313.9544982910156" viewBox="-63.207759857177734 -60.61720657348633 312.594970703125 313.9544982910156"><title>Neo4j Graph Visualization</title><desc>Created using Neo4j (http://www.neo4j.com/)</desc><g class="layer relationships"><g class="relationship" transform="translate(123.82247804065692 224.33724262029307) rotate(256.4362490404073)"><path class="outline" fill="#A5ABB6" stroke="none" d="M 25 0.5 L 38.93032481263829 0.5 L 38.93032481263829 -0.5 L 25 -0.5 Z M 84.49282481263829 0.5 L 98.42314962527658 0.5 L 98.42314962527658 3.5 L 105.42314962527658 0 L 98.42314962527658 -3.5 L 98.42314962527658 -0.5 L 84.49282481263829 -0.5 Z"/><text text-anchor="middle" pointer-events="none" font-size="8px" fill="#000000" x="61.71157481263829" y="3" transform="rotate(180 61.71157481263829 0)" font-family="sans-serif">ACTED_IN</text></g><g class="relationship" transform="translate(93.23470973341385 97.5516504255973) rotate(404.9413171019024)"><path class="outline" fill="#A5ABB6" stroke="none" d="M 25 0.5 L 29.306977427454555 0.5 L 29.306977427454555 -0.5 L 25 -0.5 Z M 97.54135242745456 0.5 L 101.84832985490911 0.5 L 101.84832985490911 3.5 L 108.84832985490911 0 L 101.84832985490911 -3.5 L 101.84832985490911 -0.5 L 97.54135242745456 -0.5 Z"/><text text-anchor="middle" pointer-events="none" font-size="8px" fill="#000000" x="63.424164927454555" y="3" font-family="sans-serif">HAS_KEYWORD</text></g><g class="relationship" transform="translate(93.23470973341385 97.5516504255973) rotate(376.03505459370274)"><path class="outline" fill="#A5ABB6" stroke="none" d="M 25 0.5 L 34.28107013018423 0.5 L 34.28107013018423 -0.5 L 25 -0.5 Z M 89.62872638018423 0.5 L 98.90979651036847 0.5 L 98.90979651036847 3.5 L 105.90979651036847 0 L 98.90979651036847 -3.5 L 98.90979651036847 -0.5 L 89.62872638018423 -0.5 Z"/><text text-anchor="middle" pointer-events="none" font-size="8px" fill="#000000" x="61.95489825518423" y="3" font-family="sans-serif">HAS_GENRE</text></g><g class="relationship" transform="translate(93.23470973341385 97.5516504255973) rotate(347.3050099635194)"><path class="outline" fill="#A5ABB6" stroke="none" d="M 25 0.5 L 33.99556922325368 0.5 L 33.99556922325368 -0.5 L 25 -0.5 Z M 89.34322547325368 0.5 L 98.33879469650736 0.5 L 98.33879469650736 3.5 L 105.33879469650736 0 L 98.33879469650736 -3.5 L 98.33879469650736 -0.5 L 89.34322547325368 -0.5 Z"/><text text-anchor="middle" pointer-events="none" font-size="8px" fill="#000000" x="61.66939734825368" y="3" font-family="sans-serif">HAS_GENRE</text></g><g class="relationship" transform="translate(93.23470973341385 97.5516504255973) rotate(319.295666069814)"><path class="outline" fill="#A5ABB6" stroke="none" d="M 25 0.5 L 35.45582726332995 0.5 L 35.45582726332995 -0.5 L 25 -0.5 Z M 90.80348351332995 0.5 L 101.2593107766599 0.5 L 101.2593107766599 3.5 L 108.2593107766599 0 L 101.2593107766599 -3.5 L 101.2593107766599 -0.5 L 90.80348351332995 -0.5 Z"/><text text-anchor="middle" pointer-events="none" font-size="8px" fill="#000000" x="63.12965538832995" y="3" font-family="sans-serif">HAS_GENRE</text></g><g class="relationship" transform="translate(93.23470973341385 97.5516504255973) rotate(291.2219453769919)"><path class="outline" fill="#A5ABB6" stroke="none" d="M 25 0.5 L 33.95423875257585 0.5 L 33.95423875257585 -0.5 L 25 -0.5 Z M 89.30189500257585 0.5 L 98.2561337551517 0.5 L 98.2561337551517 3.5 L 105.2561337551517 0 L 98.2561337551517 -3.5 L 98.2561337551517 -0.5 L 89.30189500257585 -0.5 Z"/><text text-anchor="middle" pointer-events="none" font-size="8px" fill="#000000" x="61.62806687757585" y="3" font-family="sans-serif">HAS_GENRE</text></g><g class="relationship" transform="translate(75.77288524009475 -31.617207141368226) rotate(442.3010847773071)"><path class="outline" fill="#A5ABB6" stroke="none" d="M 25 0.5 L 38.89065552644311 0.5 L 38.89065552644311 -0.5 L 25 -0.5 Z M 84.45315552644311 0.5 L 98.34381105288622 0.5 L 98.34381105288622 3.5 L 105.34381105288622 0 L 98.34381105288622 -3.5 L 98.34381105288622 -0.5 L 84.45315552644311 -0.5 Z"/><text text-anchor="middle" pointer-events="none" font-size="8px" fill="#000000" x="61.67190552644311" y="3" font-family="sans-serif">ACTED_IN</text></g><g class="relationship" transform="translate(12.834138896411813 -8.741158422883862) rotate(412.89590222630744)"><path class="outline" fill="#A5ABB6" stroke="none" d="M 25 0.5 L 40.35660148812862 0.5 L 40.35660148812862 -0.5 L 25 -0.5 Z M 85.91910148812862 0.5 L 101.27570297625724 0.5 L 101.27570297625724 3.5 L 108.27570297625724 0 L 101.27570297625724 -3.5 L 101.27570297625724 -0.5 L 85.91910148812862 -0.5 Z"/><text text-anchor="middle" pointer-events="none" font-size="8px" fill="#000000" x="63.13785148812862" y="3" font-family="sans-serif">ACTED_IN</text></g><g class="relationship" transform="translate(-28.327934249816302 51.3169197599949) rotate(380.8236446978599)"><path class="outline" fill="#A5ABB6" stroke="none" d="M 25 0.5 L 38.747833362589304 0.5 L 38.747833362589304 -0.5 L 25 -0.5 Z M 84.3103333625893 0.5 L 98.05816672517861 0.5 L 98.05816672517861 3.5 L 105.05816672517861 0 L 98.05816672517861 -3.5 L 98.05816672517861 -0.5 L 84.3103333625893 -0.5 Z"/><text text-anchor="middle" pointer-events="none" font-size="8px" fill="#000000" x="61.529083362589304" y="3" font-family="sans-serif">ACTED_IN</text></g><g class="relationship" transform="translate(-34.207760473037354 121.77635862798138) rotate(349.237416597506)"><path class="outline" fill="#A5ABB6" stroke="none" d="M 25 0.5 L 38.58094950751912 0.5 L 38.58094950751912 -0.5 L 25 -0.5 Z M 84.14344950751912 0.5 L 97.72439901503824 0.5 L 97.72439901503824 3.5 L 104.72439901503824 0 L 97.72439901503824 -3.5 L 97.72439901503824 -0.5 L 84.14344950751912 -0.5 Z"/><text text-anchor="middle" pointer-events="none" font-size="8px" fill="#000000" x="61.36219950751912" y="3" font-family="sans-serif">ACTED_IN</text></g><g class="relationship" transform="translate(-5.008561106564622 185.27372596206783) rotate(318.23812016812155)"><path class="outline" fill="#A5ABB6" stroke="none" d="M 25 0.5 L 39.572570697366544 0.5 L 39.572570697366544 -0.5 L 25 -0.5 Z M 85.13507069736654 0.5 L 99.70764139473309 0.5 L 99.70764139473309 3.5 L 106.70764139473309 0 L 99.70764139473309 -3.5 L 99.70764139473309 -0.5 L 85.13507069736654 -0.5 Z"/><text text-anchor="middle" pointer-events="none" font-size="8px" fill="#000000" x="62.353820697366544" y="3" font-family="sans-serif">ACTED_IN</text></g><g class="relationship" transform="translate(54.254904979431345 221.40639861994597) rotate(287.4699318362644)"><path class="outline" fill="#A5ABB6" stroke="none" d="M 25 0.5 L 38.640672008178626 0.5 L 38.640672008178626 -0.5 L 25 -0.5 Z M 84.20317200817863 0.5 L 97.84384401635725 0.5 L 97.84384401635725 3.5 L 104.84384401635725 0 L 97.84384401635725 -3.5 L 97.84384401635725 -0.5 L 84.20317200817863 -0.5 Z"/><text text-anchor="middle" pointer-events="none" font-size="8px" fill="#000000" x="61.421922008178626" y="3" font-family="sans-serif">ACTED_IN</text></g></g><g class="layer nodes"><g class="node" transform="translate(123.82247804065692,224.33724262029307)"><circle class="outline" cx="0" cy="0" r="25" fill="#68BDF6" stroke="#5CA8DB" stroke-width="2px"/><text text-anchor="middle" pointer-events="none" y="0" font-size="10px" fill="#FFFFFF" font-family="sans-serif"> Laurence</text><text text-anchor="middle" pointer-events="none" y="10" font-size="10px" fill="#FFFFFF" font-family="sans-serif"> Fishbur…</text></g><g class="node" transform="translate(187.97665816418606,192.09972609342594)"><circle class="outline" cx="0" cy="0" r="25" fill="#A5ABB6" stroke="#9AA1AC" stroke-width="2px"/><text text-anchor="middle" pointer-events="none" y="0" font-size="10px" fill="#FFFFFF" font-family="sans-serif"> virtual</text><text text-anchor="middle" pointer-events="none" y="10" font-size="10px" fill="#FFFFFF" font-family="sans-serif"> reality</text></g><g class="node" transform="translate(93.23470973341385,97.5516504255973)"><circle class="outline" cx="0" cy="0" r="25" fill="#6DCE9E" stroke="#60B58B" stroke-width="2px"/><text text-anchor="middle" pointer-events="none" y="0" font-size="10px" fill="#FFFFFF" font-family="sans-serif"> The</text><text text-anchor="middle" pointer-events="none" y="10" font-size="10px" fill="#FFFFFF" font-family="sans-serif"> Matrix</text></g><g class="node" transform="translate(219.05118257400153,133.71226414190113)"><circle class="outline" cx="0" cy="0" r="25" fill="#FF756E" stroke="#E06760" stroke-width="2px"/><text text-anchor="middle" pointer-events="none" y="5" font-size="10px" fill="#FFFFFF" font-family="sans-serif"> Action</text></g><g class="node" transform="translate(220.38721144886344,68.90827928250586)"><circle class="outline" cx="0" cy="0" r="25" fill="#FF756E" stroke="#E06760" stroke-width="2px"/><text text-anchor="middle" pointer-events="none" y="5" font-size="10px" fill="#FFFFFF" font-family="sans-serif"> Adventure</text></g><g class="node" transform="translate(194.25659546616495,10.645824892038245)"><circle class="outline" cx="0" cy="0" r="25" fill="#FF756E" stroke="#E06760" stroke-width="2px"/><text text-anchor="middle" pointer-events="none" y="5" font-size="10px" fill="#FFFFFF" font-family="sans-serif"> Sci-Fi</text></g><g class="node" transform="translate(140.38503882678657,-23.871192759804245)"><circle class="outline" cx="0" cy="0" r="25" fill="#FF756E" stroke="#E06760" stroke-width="2px"/><text text-anchor="middle" pointer-events="none" y="5" font-size="10px" fill="#FFFFFF" font-family="sans-serif"> Thriller</text></g><g class="node" transform="translate(75.77288524009475,-31.617207141368226)"><circle class="outline" cx="0" cy="0" r="25" fill="#68BDF6" stroke="#5CA8DB" stroke-width="2px"/><text text-anchor="middle" pointer-events="none" y="5" font-size="10px" fill="#FFFFFF" font-family="sans-serif"> Carrie-A…</text></g><g class="node" transform="translate(12.834138896411813,-8.741158422883862)"><circle class="outline" cx="0" cy="0" r="25" fill="#68BDF6" stroke="#5CA8DB" stroke-width="2px"/><text text-anchor="middle" pointer-events="none" y="0" font-size="10px" fill="#FFFFFF" font-family="sans-serif"> Hugo</text><text text-anchor="middle" pointer-events="none" y="10" font-size="10px" fill="#FFFFFF" font-family="sans-serif"> Weaving</text></g><g class="node" transform="translate(-28.327934249816302,51.3169197599949)"><circle class="outline" cx="0" cy="0" r="25" fill="#68BDF6" stroke="#5CA8DB" stroke-width="2px"/><text text-anchor="middle" pointer-events="none" y="0" font-size="10px" fill="#FFFFFF" font-family="sans-serif"> Gloria</text><text text-anchor="middle" pointer-events="none" y="10" font-size="10px" fill="#FFFFFF" font-family="sans-serif"> Foster</text></g><g class="node" transform="translate(-34.207760473037354,121.77635862798138)"><circle class="outline" cx="0" cy="0" r="25" fill="#68BDF6" stroke="#5CA8DB" stroke-width="2px"/><text text-anchor="middle" pointer-events="none" y="0" font-size="10px" fill="#FFFFFF" font-family="sans-serif"> Joe</text><text text-anchor="middle" pointer-events="none" y="10" font-size="10px" fill="#FFFFFF" font-family="sans-serif"> Pantoli…</text></g><g class="node" transform="translate(-5.008561106564622,185.27372596206783)"><circle class="outline" cx="0" cy="0" r="25" fill="#68BDF6" stroke="#5CA8DB" stroke-width="2px"/><text text-anchor="middle" pointer-events="none" y="0" font-size="10px" fill="#FFFFFF" font-family="sans-serif"> Marcus</text><text text-anchor="middle" pointer-events="none" y="10" font-size="10px" fill="#FFFFFF" font-family="sans-serif"> Chong</text></g><g class="node" transform="translate(54.254904979431345,221.40639861994597)"><circle class="outline" cx="0" cy="0" r="25" fill="#68BDF6" stroke="#5CA8DB" stroke-width="2px"/><text text-anchor="middle" pointer-events="none" y="0" font-size="10px" fill="#FFFFFF" font-family="sans-serif"> Matt</text><text text-anchor="middle" pointer-events="none" y="10" font-size="10px" fill="#FFFFFF" font-family="sans-serif"> Doran</text></g></g></svg>